<?xml version="1.0"?>
<svg version="1.1" xmlns="http://www.w3.org/2000/svg" width="391" height="100" style="border: dashed 2px #aaa"><path fill="#d11bbf" d="M16.6083984375,43.56640625q0-1.2392578125,0.06591796875-2.4521484375t0.22412109375-2.3994140625q0.10546875-0.6064453125,0.93603515625-0.8701171875t1.38427734375-0.263671875l0.6328125,0.052734375q0.7646484375,0.10546875,1.54248046875-0.10546875t1.54248046875-0.2109375q1.79296875,0,4.0078125,0.3955078125t4.15283203125,1.3447265625t3.25634765625,2.49169921875t1.318359375,3.81005859375t-1.37109375,4.23193359375t-3.4541015625,3.4541015625t-4.482421875,2.33349609375t-4.4033203125,0.84375q0.2109375,5.0888671875,0.59326171875,10.0986328125t1.30517578125,10.01953125l0.052734375,0.3427734375q0,0.369140625-0.32958984375,0.6064453125t-0.77783203125,0.38232421875t-0.90966796875,0.19775390625t-0.75146484375,0.052734375q-0.6591796875,0-1.59521484375-0.25048828125t-1.14697265625-0.98876953125q-0.6064453125-2.3203125-0.94921875-5.10205078125t-0.5009765625-5.81396484375t-0.22412109375-6.10400390625t-0.06591796875-5.99853515625l0-5.9326171875q0-0.9755859375-0.0263671875-2.0302734375t-0.0263671875-2.1357421875z M21.591796875,39.294921875q0,3.6123046875,0.0791015625,7.21142578125t0.1845703125,7.21142578125q1.5556640625-0.31640625,3.17724609375-1.12060546875t2.9267578125-1.91162109375t2.109375-2.51806640625t0.80419921875-2.96630859375q0-1.3974609375-0.69873046875-2.5048828125t-1.80615234375-1.8984375q-1.0810546875-0.7646484375-2.4521484375-1.1865234375q-1.212890625-0.369140625-2.373046875-0.369140625l-0.2900390625,0z M41.068447265625,59.7822265625q0-1.0810546875,0.38232421875-1.8193359375t1.62158203125-0.73828125q0.474609375,0,1.1865234375,0.14501953125t0.8173828125,0.72509765625q0.263671875,1.5556640625,0.2900390625,3.375t0.1845703125,3.427734375q0.6064453125-1.1865234375,1.5556640625-2.5576171875t2.162109375-2.53125t2.63671875-1.9248046875t2.900390625-0.7646484375q0.10546875,0,0.3955078125,0.0791015625t0.54052734375,0.22412109375t0.30322265625,0.32958984375t-0.2900390625,0.3427734375q-0.10546875,0.31640625-0.4482421875,0.38232421875t-0.6064453125,0.06591796875q-0.158203125,0-0.5009765625-0.1318359375q-1.951171875,1.0283203125-3.322265625,2.794921875t-2.2412109375,3.91552734375t-1.265625,4.53515625t-0.3955078125,4.65380859375q0,1.1337890625-0.51416015625,1.37109375t-1.64794921875,0.2373046875q-0.6064453125,0-1.27880859375-0.1318359375t-0.93603515625-0.84375q-0.474609375-1.5029296875-0.77783203125-3.4541015625t-0.46142578125-4.02099609375t-0.22412109375-4.07373046875t-0.06591796875-3.6123046875z M59.27947265625,67.666015625q0-1.5029296875,0.38232421875-3.09814453125t1.212890625-2.8740234375t2.09619140625-2.0830078125t3.05859375-0.80419921875q1.3447265625,0,2.83447265625,0.46142578125t2.72900390625,1.318359375t2.01708984375,2.09619140625t0.77783203125,2.7685546875q0,1.845703125-0.67236328125,3.5068359375t-1.88525390625,2.96630859375t-2.83447265625,2.056640625t-3.52001953125,0.75146484375q-1.5556640625,0-2.7158203125-0.56689453125t-1.93798828125-1.51611328125t-1.16015625-2.2412109375t-0.38232421875-2.7421875z M63.15544921875,67.61328125q0,0.474609375,0.14501953125,1.3974609375t0.43505859375,1.80615234375t0.75146484375,1.529296875t1.12060546875,0.59326171875q1.3974609375-0.158203125,2.30712890625-0.90966796875t1.4765625-1.83251953125t0.791015625-2.3466796875t0.22412109375-2.3994140625q0-1.4501953125-0.56689453125-2.42578125t-1.85888671875-1.58203125q0,0.052734375,0.052734375,0.052734375t0.052734375-0.052734375l-0.6591796875-0.158203125q-0.263671875-0.10546875-0.64599609375-0.2373046875t-0.75146484375-0.580078125q-1.0283203125,0.369140625-1.59521484375,0.94921875t-0.85693359375,1.41064453125t-0.35595703125,1.99072265625t-0.06591796875,2.794921875z M78.729755859375,52.689453125l0.158203125-0.31640625q0.421875-0.369140625,1.2919921875-1.107421875t1.8984375-1.67431640625t2.1357421875-1.96435546875t1.99072265625-2.00390625t1.4501953125-1.83251953125t0.56689453125-1.46337890625q0-0.31640625,0.30322265625-0.56689453125t0.685546875-0.40869140625t0.77783203125-0.2109375t0.685546875-0.052734375q0.6064453125,0,1.38427734375,0.1845703125t1.04150390625,0.896484375q-0.6064453125,5.2470703125-1.12060546875,10.29638671875t-0.51416015625,10.27001953125q0,3.5595703125,0.43505859375,7.10595703125t0.43505859375,7.00048828125q0,0.421875-0.38232421875,0.67236328125t-0.85693359375,0.38232421875t-0.98876953125,0.1845703125t-0.80419921875,0.052734375q-1.2392578125,0-1.83251953125-0.43505859375t-0.83056640625-1.107421875t-0.2373046875-1.529296875t-0.052734375-1.77978515625q-0.10546875-1.8984375-0.19775390625-3.75732421875t-0.09228515625-3.75732421875q0-4.32421875,0.22412109375-8.60888671875t0.90966796875-8.55615234375q-0.6064453125,0.6064453125-1.43701171875,1.41064453125t-1.79296875,1.5556640625t-1.96435546875,1.265625t-1.8720703125,0.51416015625q-0.263671875,0-0.80419921875-0.10546875t-0.59326171875-0.5537109375z"/><path fill="#0fd12f" d="M103.58580078125,56.48486328125q0-0.2783203125,0.431396484375-0.47314453125t1.02978515625-0.2783203125t1.14111328125-0.13916015625t0.821044921875-0.0556640625q0.111328125-0.75146484375,0.320068359375-2.03173828125t0.514892578125-2.741455078125t0.765380859375-2.936279296875t1.11328125-2.671875t1.544677734375-1.962158203125t2.08740234375-0.765380859375l-0.0556640625,0q0.3896484375-0.0556640625,0.765380859375-0.08349609375t0.765380859375-0.02783203125q0.91845703125,0,1.989990234375,0.36181640625t1.989990234375,1.015869140625t1.544677734375,1.572509765625t0.626220703125,1.9482421875q0,0.80712890625-0.403564453125,1.739501953125t-1.405517578125,0.932373046875q-0.333984375,0-0.681884765625-0.1669921875t-0.654052734375-0.36181640625q0.111328125-0.64013671875,0.111328125-1.2802734375q0-0.333984375-0.02783203125-0.64013671875q-0.08349609375-0.97412109375-0.41748046875-1.711669921875t-0.960205078125-1.1689453125t-1.489013671875-0.320068359375q-1.14111328125,0.1669921875-1.711669921875,1.3916015625t-0.793212890625,2.908447265625t-0.2783203125,3.42333984375t-0.22265625,2.824951171875q1.30810546875,0.111328125,2.212646484375,0.111328125l2.268310546875,0q0.22265625,0,0.765380859375,0.02783203125t1.0576171875,0.111328125t0.91845703125,0.292236328125t0.403564453125,0.542724609375q0,0.2783203125-0.22265625,0.487060546875t-0.542724609375,0.292236328125t-0.66796875,0.111328125t-0.570556640625,0.02783203125q-0.97412109375,0-1.656005859375-0.08349609375t-1.30810546875-0.153076171875t-1.30810546875-0.069580078125t-1.600341796875,0.19482421875q-0.2783203125,3.08935546875-0.4453125,6.123046875t-0.1669921875,6.123046875q0,4.8427734375,0.30615234375,9.49072265625t1.11328125,9.43505859375q0.111328125,0.4453125,0.19482421875,1.015869140625t0.08349609375,1.099365234375q0,0.5009765625-0.30615234375,0.821044921875t-0.765380859375,0.459228515625t-0.9462890625,0.19482421875t-0.876708984375,0.0556640625q-1.58642578125,0-2.2265625-0.487060546875t-0.91845703125-1.962158203125q-0.69580078125-3.92431640625-0.890625-7.918212890625t-0.19482421875-8.057373046875q0-3.97998046875,0.292236328125-7.946044921875t0.737548828125-7.890380859375q-0.22265625,0-0.765380859375,0.02783203125t-1.08544921875,0t-0.9462890625-0.19482421875t-0.403564453125-0.58447265625z M123.56001464844,68.6474609375q0-1.58642578125,0.403564453125-3.270263671875t1.2802734375-3.03369140625t2.212646484375-2.19873046875t3.228515625-0.848876953125q1.41943359375,0,2.991943359375,0.487060546875t2.880615234375,1.3916015625t2.129150390625,2.212646484375t0.821044921875,2.92236328125q0,1.9482421875-0.709716796875,3.70166015625t-1.989990234375,3.131103515625t-2.991943359375,2.1708984375t-3.715576171875,0.793212890625q-1.64208984375,0-2.86669921875-0.598388671875t-2.045654296875-1.600341796875t-1.224609375-2.36572265625t-0.403564453125-2.89453125z M127.65132324219,68.591796875q0,0.5009765625,0.153076171875,1.47509765625t0.459228515625,1.906494140625t0.793212890625,1.6142578125t1.182861328125,0.626220703125q1.47509765625-0.1669921875,2.435302734375-0.960205078125t1.55859375-1.934326171875t0.8349609375-2.47705078125t0.236572265625-2.53271484375q0-1.53076171875-0.598388671875-2.560546875t-1.962158203125-1.669921875q0,0.0556640625,0.0556640625,0.0556640625t0.0556640625-0.0556640625l-0.69580078125-0.1669921875q-0.2783203125-0.111328125-0.681884765625-0.25048828125t-0.793212890625-0.6123046875q-1.08544921875,0.3896484375-1.683837890625,1.001953125t-0.904541015625,1.489013671875t-0.375732421875,2.101318359375t-0.069580078125,2.9501953125z M144.64750976562,60.32568359375q0-1.14111328125,0.403564453125-1.92041015625t1.711669921875-0.779296875q0.5009765625,0,1.25244140625,0.153076171875t0.86279296875,0.765380859375q0.2783203125,1.64208984375,0.30615234375,3.5625t0.19482421875,3.6181640625q0.64013671875-1.25244140625,1.64208984375-2.69970703125t2.2822265625-2.671875t2.783203125-2.03173828125t3.0615234375-0.80712890625q0.111328125,0,0.41748046875,0.08349609375t0.570556640625,0.236572265625t0.320068359375,0.347900390625t-0.30615234375,0.36181640625q-0.111328125,0.333984375-0.47314453125,0.403564453125t-0.64013671875,0.069580078125q-0.1669921875,0-0.52880859375-0.13916015625q-2.0595703125,1.08544921875-3.5068359375,2.9501953125t-2.36572265625,4.133056640625t-1.3359375,4.787109375t-0.41748046875,4.912353515625q0,1.19677734375-0.542724609375,1.447265625t-1.739501953125,0.25048828125q-0.64013671875,0-1.349853515625-0.13916015625t-0.988037109375-0.890625q-0.5009765625-1.58642578125-0.821044921875-3.64599609375t-0.487060546875-4.244384765625t-0.236572265625-4.300048828125t-0.069580078125-3.81298828125z M175.27220703125,67.78466796875q0-2.1708984375,0.459228515625-3.938232421875t1.461181640625-2.991943359375t2.630126953125-1.906494140625t3.966064453125-0.681884765625q1.30810546875,0,2.671875,0.347900390625t2.337890625,1.294189453125q0-0.556640625,0.111328125-2.296142578125t0.2783203125-4.049560546875t0.347900390625-4.8427734375t0.320068359375-4.70361328125t0.25048828125-3.64599609375t0.1669921875-1.669921875q0.2783203125-0.80712890625,1.02978515625-0.960205078125t1.41943359375-0.153076171875q1.75341796875,0,2.156982421875,0.556640625t0.403564453125,2.2265625q0,6.09521484375-0.542724609375,12.134765625t-0.542724609375,12.134765625q0,3.92431640625,0.153076171875,7.890380859375t1.099365234375,7.806884765625l0.30615234375,0.2783203125l0.1669921875,0.5009765625l-0.41748046875,0.64013671875q-1.0576171875,0.66796875-2.44921875,0.66796875l-0.111328125,0q-1.41943359375,0-2.6162109375-0.66796875q-0.4453125-0.2783203125-0.737548828125-1.656005859375t-0.459228515625-3.03369140625t-0.25048828125-3.186767578125t-0.13916015625-2.1708984375q-0.97412109375,2.2265625-2.657958984375,3.826904296875t-4.244384765625,1.600341796875q-2.00390625,0-3.2841796875-0.86279296875t-1.989990234375-2.19873046875t-1.001953125-2.991943359375t-0.292236328125-3.298095703125z M178.6398828125,67.95166015625q0,0.64013671875,0.153076171875,1.892578125t0.487060546875,2.5048828125t0.932373046875,2.2265625t1.572509765625,0.97412109375q1.30810546875-0.64013671875,2.36572265625-2.129150390625t1.822998046875-3.2841796875t1.19677734375-3.59033203125t0.431396484375-3.103271484375q0-1.64208984375-1.19677734375-2.7275390625t-2.86669921875-1.08544921875q-0.5009765625,0-1.015869140625,0.19482421875t-0.960205078125,0.4453125q-1.02978515625,0.97412109375-1.600341796875,1.767333984375t-0.86279296875,1.64208984375t-0.375732421875,1.878662109375t-0.08349609375,2.3935546875z M201.61995605469,69.259765625q0-1.9482421875,0.431396484375-4.59228515625t1.461181640625-5.009765625t2.713623046875-4.021728515625t4.244384765625-1.656005859375q2.3935546875,0,3.59033203125,1.377685546875t1.19677734375,3.715576171875q0,1.53076171875-0.570556640625,3.353759765625t-1.628173828125,3.451171875t-2.5048828125,2.713623046875t-3.228515625,1.08544921875l-0.7236328125-0.0556640625q0,0.75146484375,0.22265625,2.017822265625t0.654052734375,2.518798828125t1.11328125,2.19873046875t1.656005859375,0.9462890625q1.41943359375,0,2.7275390625-1.14111328125t2.47705078125-2.53271484375t2.1708984375-2.53271484375t1.8369140625-1.14111328125q0.4453125,0,0.91845703125,0.13916015625t0.52880859375,0.779296875q0,0.3896484375-0.208740234375,0.64013671875t-0.375732421875,0.556640625q-0.86279296875,1.47509765625-1.878662109375,2.81103515625t-2.296142578125,2.42138671875t-2.797119140625,1.711669921875t-3.353759765625,0.626220703125q-2.3935546875,0-3.97998046875-0.848876953125t-2.560546875-2.2822265625t-1.405517578125-3.31201171875t-0.431396484375-3.938232421875z M206.60188964844,67.14453125l0.779296875,0.69580078125q0.556640625,0.5009765625,1.11328125,0.22265625t1.001953125-1.015869140625t0.821044921875-1.822998046875t0.66796875-2.2265625t0.431396484375-2.2265625t0.13916015625-1.80908203125l0-0.9462890625t-0.08349609375-1.001953125t-0.292236328125-0.793212890625t-0.654052734375-0.403564453125q-0.13916015625-0.02783203125-0.25048828125-0.02783203125q-0.9462890625,0-1.6142578125,1.19677734375q-0.7236328125,1.3359375-1.1689453125,3.242431640625t-0.64013671875,3.910400390625t-0.25048828125,3.005859375z M224.87834960938,67.78466796875q0-2.1708984375,0.459228515625-3.938232421875t1.461181640625-2.991943359375t2.630126953125-1.906494140625t3.966064453125-0.681884765625q1.30810546875,0,2.671875,0.347900390625t2.337890625,1.294189453125q0-0.556640625,0.111328125-2.296142578125t0.2783203125-4.049560546875t0.347900390625-4.8427734375t0.320068359375-4.70361328125t0.25048828125-3.64599609375t0.1669921875-1.669921875q0.2783203125-0.80712890625,1.02978515625-0.960205078125t1.41943359375-0.153076171875q1.75341796875,0,2.156982421875,0.556640625t0.403564453125,2.2265625q0,6.09521484375-0.542724609375,12.134765625t-0.542724609375,12.134765625q0,3.92431640625,0.153076171875,7.890380859375t1.099365234375,7.806884765625l0.30615234375,0.2783203125l0.1669921875,0.5009765625l-0.41748046875,0.64013671875q-1.0576171875,0.66796875-2.44921875,0.66796875l-0.111328125,0q-1.41943359375,0-2.6162109375-0.66796875q-0.4453125-0.2783203125-0.737548828125-1.656005859375t-0.459228515625-3.03369140625t-0.25048828125-3.186767578125t-0.13916015625-2.1708984375q-0.97412109375,2.2265625-2.657958984375,3.826904296875t-4.244384765625,1.600341796875q-2.00390625,0-3.2841796875-0.86279296875t-1.989990234375-2.19873046875t-1.001953125-2.991943359375t-0.292236328125-3.298095703125z M228.24602539063,67.95166015625q0,0.64013671875,0.153076171875,1.892578125t0.487060546875,2.5048828125t0.932373046875,2.2265625t1.572509765625,0.97412109375q1.30810546875-0.64013671875,2.36572265625-2.129150390625t1.822998046875-3.2841796875t1.19677734375-3.59033203125t0.431396484375-3.103271484375q0-1.64208984375-1.19677734375-2.7275390625t-2.86669921875-1.08544921875q-0.5009765625,0-1.015869140625,0.19482421875t-0.960205078125,0.4453125q-1.02978515625,0.97412109375-1.600341796875,1.767333984375t-0.86279296875,1.64208984375t-0.375732421875,1.878662109375t-0.08349609375,2.3935546875z M251.22609863281,67.45068359375q0-2.560546875,0.598388671875-5.023681640625t1.015869140625-4.912353515625q0.111328125-0.64013671875,0.876708984375-0.793212890625t1.294189453125-0.153076171875q0.91845703125,0,1.47509765625,0.2783203125q0.22265625,0.111328125,0.41748046875,0.25048828125t0.19482421875,0.36181640625q0,2.3935546875-0.570556640625,4.67578125t-0.570556640625,4.8427734375q0,0.86279296875,0.125244140625,1.628173828125t0.236572265625,1.516845703125l0.1669921875,0.80712890625q0,0.22265625,0.02783203125,0.3896484375t0.08349609375,0.3896484375q0,0.5009765625-0.709716796875,0.681884765625t-1.238525390625,0.180908203125q-0.80712890625,0-1.489013671875-0.320068359375t-1.071533203125-1.099365234375l-0.3896484375-0.80712890625q-0.333984375-0.64013671875-0.333984375-1.433349609375t-0.13916015625-1.461181640625z M253.00734863281,50.69580078125l0-0.52880859375q0-1.30810546875,0.654052734375-2.337890625t1.962158203125-1.02978515625q0.1669921875,0,0.320068359375,0.02783203125t0.320068359375,0.02783203125q0.333984375,0.0556640625,0.876708984375,0.264404296875t0.542724609375,0.654052734375l0,0.0556640625q-0.111328125,0.22265625-0.13916015625,0.459228515625t-0.13916015625,0.403564453125l0.0556640625-0.0556640625q-0.333984375,0.86279296875-0.542724609375,1.3916015625t-0.459228515625,0.848876953125t-0.626220703125,0.459228515625t-1.071533203125,0.13916015625q-0.111328125,0-0.3896484375-0.02783203125t-0.598388671875-0.111328125t-0.542724609375-0.22265625t-0.22265625-0.41748046875z M263.37951171875,67.56201171875q0-2.00390625,0.514892578125-4.021728515625t1.600341796875-3.6181640625t2.769287109375-2.602294921875t3.966064453125-1.001953125q0.97412109375,0,2.14306640625,0.236572265625t2.156982421875,0.75146484375t1.669921875,1.3359375t0.681884765625,2.017822265625q0,0.75146484375-0.3896484375,1.001953125t-1.02978515625,0.25048828125l-0.19482421875-0.2783203125t-0.542724609375-0.709716796875t-0.737548828125-0.91845703125t-0.75146484375-0.821044921875q-1.14111328125-1.14111328125-2.14306640625-1.224609375l-0.22265625,0q-0.8349609375,0-1.55859375,0.5009765625q-0.80712890625,0.6123046875-1.433349609375,1.7255859375t-1.043701171875,2.36572265625t-0.654052734375,2.53271484375t-0.236572265625,2.115234375q0,1.14111328125,0.264404296875,2.602294921875t0.890625,2.769287109375t1.58642578125,2.19873046875t2.463134765625,0.890625q1.36376953125,0,2.47705078125-0.66796875t2.129150390625-1.489013671875t1.989990234375-1.47509765625t2.00390625-0.654052734375q0.4453125,0,0.904541015625,0.111328125t0.459228515625,0.58447265625l0,0.1669921875q-0.5009765625,1.30810546875-1.69775390625,2.31005859375t-2.685791015625,1.739501953125t-3.08935546875,1.099365234375t-2.852783203125,0.36181640625q-2.337890625,0-4.105224609375-0.765380859375t-2.936279296875-2.101318359375t-1.767333984375-3.214599609375t-0.598388671875-4.105224609375z M287.66769042969,68.11865234375q0-1.892578125,0.514892578125-3.64599609375t1.544677734375-3.131103515625t2.574462890625-2.19873046875t3.576416015625-0.821044921875q1.25244140625,0,2.769287109375,0.375732421875t2.852783203125,1.11328125t2.2265625,1.878662109375t0.890625,2.6162109375q0,0.69580078125-0.236572265625,1.0576171875t-0.960205078125,0.36181640625l-0.30615234375-0.0556640625q0.80712890625,2.1708984375,1.3916015625,4.453125t1.14111328125,4.564453125q0.22265625,0.4453125,0.333984375,0.793212890625t0.111328125,0.681884765625q0,0.4453125-0.25048828125,0.737548828125t-0.654052734375,0.431396484375t-0.8349609375,0.19482421875t-0.765380859375,0.0556640625q-1.19677734375,0-1.795166015625-0.41748046875t-0.86279296875-1.14111328125t-0.320068359375-1.628173828125t-0.22265625-1.822998046875q-0.333984375,1.08544921875-0.876708984375,2.115234375t-1.2802734375,1.850830078125t-1.739501953125,1.30810546875t-2.25439453125,0.487060546875q-1.8369140625,0-3.08935546875-1.0576171875t-2.017822265625-2.602294921875t-1.11328125-3.298095703125t-0.347900390625-3.25634765625z M291.61983886719,67.72900390625q0,1.02978515625,0.13916015625,2.1708984375t0.459228515625,2.25439453125t0.821044921875,2.101318359375t1.25244140625,1.739501953125q1.36376953125-1.47509765625,2.017822265625-3.59033203125t1.1689453125-4.077392578125t1.1689453125-3.36767578125t2.017822265625-1.405517578125q0.86279296875,0,1.447265625,0.30615234375q-0.2783203125-0.69580078125-0.91845703125-1.349853515625t-1.433349609375-1.19677734375t-1.64208984375-0.890625t-1.600341796875-0.347900390625q-0.22265625,0-0.514892578125,0.069580078125t-0.459228515625,0.013916015625q-1.14111328125,0.333984375-1.878662109375,1.155029296875t-1.19677734375,1.934326171875t-0.654052734375,2.2822265625t-0.19482421875,2.19873046875z M310.64776367188,50.4453125q0-0.3896484375,0.8349609375-0.66796875t1.892578125-0.459228515625t2.045654296875-0.264404296875t1.349853515625-0.13916015625q0-0.75146484375,0.0556640625-1.516845703125t0.30615234375-1.36376953125t0.793212890625-0.960205078125t1.516845703125-0.36181640625q0.80712890625,0,1.224609375,0.19482421875t0.890625,0.80712890625q0.111328125,0.333984375,0.111328125,0.64013671875l0,0.932373046875t-0.0556640625,0.960205078125q1.02978515625-0.111328125,2.045654296875-0.264404296875t2.045654296875-0.153076171875q0.75146484375,0,1.02978515625,0.02783203125t0.556640625,0.66796875q0.22265625,0.64013671875-0.542724609375,0.97412109375t-1.8369140625,0.5009765625t-2.129150390625,0.25048828125t-1.2802734375,0.08349609375q-0.333984375,4.787109375-0.681884765625,9.49072265625t-0.347900390625,9.54638671875q0,2.1708984375,0.13916015625,4.48095703125t0.779296875,4.36962890625q0.1669921875,0.64013671875,0.556640625,1.19677734375t0.3896484375,1.19677734375q0,0.3896484375-0.30615234375,0.6123046875t-0.737548828125,0.375732421875t-0.86279296875,0.180908203125t-0.709716796875,0.02783203125q-1.75341796875,0-2.671875-1.30810546875t-1.322021484375-3.131103515625t-0.431396484375-3.743408203125t-0.02783203125-3.1171875q0-2.44921875,0.097412109375-5.009765625t0.236572265625-5.0654296875t0.3896484375-4.8984375t0.58447265625-4.453125q-0.97412109375,0.111328125-1.906494140625,0.25048828125t-1.906494140625,0.13916015625q-0.22265625,0-0.598388671875-0.02783203125t-0.709716796875-0.13916015625t-0.570556640625-0.30615234375t-0.236572265625-0.556640625z M331.93008300781,69.259765625q0-1.9482421875,0.431396484375-4.59228515625t1.461181640625-5.009765625t2.713623046875-4.021728515625t4.244384765625-1.656005859375q2.3935546875,0,3.59033203125,1.377685546875t1.19677734375,3.715576171875q0,1.53076171875-0.570556640625,3.353759765625t-1.628173828125,3.451171875t-2.5048828125,2.713623046875t-3.228515625,1.08544921875l-0.7236328125-0.0556640625q0,0.75146484375,0.22265625,2.017822265625t0.654052734375,2.518798828125t1.11328125,2.19873046875t1.656005859375,0.9462890625q1.41943359375,0,2.7275390625-1.14111328125t2.47705078125-2.53271484375t2.1708984375-2.53271484375t1.8369140625-1.14111328125q0.4453125,0,0.91845703125,0.13916015625t0.52880859375,0.779296875q0,0.3896484375-0.208740234375,0.64013671875t-0.375732421875,0.556640625q-0.86279296875,1.47509765625-1.878662109375,2.81103515625t-2.296142578125,2.42138671875t-2.797119140625,1.711669921875t-3.353759765625,0.626220703125q-2.3935546875,0-3.97998046875-0.848876953125t-2.560546875-2.2822265625t-1.405517578125-3.31201171875t-0.431396484375-3.938232421875z M336.91201660156,67.14453125l0.779296875,0.69580078125q0.556640625,0.5009765625,1.11328125,0.22265625t1.001953125-1.015869140625t0.821044921875-1.822998046875t0.66796875-2.2265625t0.431396484375-2.2265625t0.13916015625-1.80908203125l0-0.9462890625t-0.08349609375-1.001953125t-0.292236328125-0.793212890625t-0.654052734375-0.403564453125q-0.13916015625-0.02783203125-0.25048828125-0.02783203125q-0.9462890625,0-1.6142578125,1.19677734375q-0.7236328125,1.3359375-1.1689453125,3.242431640625t-0.64013671875,3.910400390625t-0.25048828125,3.005859375z M355.1884765625,67.78466796875q0-2.1708984375,0.459228515625-3.938232421875t1.461181640625-2.991943359375t2.630126953125-1.906494140625t3.966064453125-0.681884765625q1.30810546875,0,2.671875,0.347900390625t2.337890625,1.294189453125q0-0.556640625,0.111328125-2.296142578125t0.2783203125-4.049560546875t0.347900390625-4.8427734375t0.320068359375-4.70361328125t0.25048828125-3.64599609375t0.1669921875-1.669921875q0.2783203125-0.80712890625,1.02978515625-0.960205078125t1.41943359375-0.153076171875q1.75341796875,0,2.156982421875,0.556640625t0.403564453125,2.2265625q0,6.09521484375-0.542724609375,12.134765625t-0.542724609375,12.134765625q0,3.92431640625,0.153076171875,7.890380859375t1.099365234375,7.806884765625l0.30615234375,0.2783203125l0.1669921875,0.5009765625l-0.41748046875,0.64013671875q-1.0576171875,0.66796875-2.44921875,0.66796875l-0.111328125,0q-1.41943359375,0-2.6162109375-0.66796875q-0.4453125-0.2783203125-0.737548828125-1.656005859375t-0.459228515625-3.03369140625t-0.25048828125-3.186767578125t-0.13916015625-2.1708984375q-0.97412109375,2.2265625-2.657958984375,3.826904296875t-4.244384765625,1.600341796875q-2.00390625,0-3.2841796875-0.86279296875t-1.989990234375-2.19873046875t-1.001953125-2.991943359375t-0.292236328125-3.298095703125z M358.55615234375,67.95166015625q0,0.64013671875,0.153076171875,1.892578125t0.487060546875,2.5048828125t0.932373046875,2.2265625t1.572509765625,0.97412109375q1.30810546875-0.64013671875,2.36572265625-2.129150390625t1.822998046875-3.2841796875t1.19677734375-3.59033203125t0.431396484375-3.103271484375q0-1.64208984375-1.19677734375-2.7275390625t-2.86669921875-1.08544921875q-0.5009765625,0-1.015869140625,0.19482421875t-0.960205078125,0.4453125q-1.02978515625,0.97412109375-1.600341796875,1.767333984375t-0.86279296875,1.64208984375t-0.375732421875,1.878662109375t-0.08349609375,2.3935546875z"/></svg>
